<svg version="1.1" id="Capa_1" xmlns="http://www.w3.org/2000/svg" xmlns:xlink="http://www.w3.org/1999/xlink" x="0px" y="0px" viewBox="0 0 512 512" style="enable-background:new 0 0 512 512;" xml:space="preserve">
<g>
	<g>
		<path d="M462.317,34.611H214.039c-27.395,0-49.683,22.288-49.683,49.683v297.703h-19.682c-27.395,0-49.682,22.288-49.682,49.683    s22.287,49.683,49.682,49.683h248.279c27.395,0,49.683-22.288,49.683-49.683V133.977h19.681c27.395,0,49.683-22.288,49.683-49.683    C512,56.899,489.711,34.611,462.317,34.611z M282.35,85.12h110.604v30.001H282.35V85.12z M214.039,85.12h48.294v30.001h-48.294    V85.12z M214.039,134.6h178.915v30.001H214.039V134.6z M392.954,184.079v30.001h-69.441v-30.001H392.954z M214.039,184.079h89.457    v30.001h-89.457V184.079z M214.039,233.56h178.915v30.001H214.039V233.56z M392.954,283.039v30.001H282.35v-30.001H392.954z     M214.039,283.039h48.294v30.001h-48.294V283.039z M214.039,332.518h178.915v30.001H214.039V332.518z M392.954,451.362    c-10.852,0-19.682-8.829-19.682-19.682s8.829-19.682,19.682-19.682s19.682,8.829,19.682,19.682S403.806,451.362,392.954,451.362z     M462.317,103.976c-10.852,0-19.681-8.829-19.681-19.682c0-10.852,8.828-19.682,19.681-19.682s19.682,8.829,19.682,19.682    C481.999,95.146,473.168,103.976,462.317,103.976z"></path>
	</g>
</g>
<g>
	<g>
		<polygon points="60.52,387.82 45.519,374.585 45.519,465.334 75.52,465.334 75.52,374.585   "></polygon>
	</g>
</g>
<g>
	<g>
		<polygon points="60.52,30.636 0,84.034 0,334.422 45.519,374.585 45.519,209.228 75.52,209.228 75.52,374.585 121.038,334.422     121.038,84.034   "></polygon>
	</g>
</g>
<g>
</g>
<g>
</g>
<g>
</g>
<g>
</g>
<g>
</g>
<g>
</g>
<g>
</g>
<g>
</g>
<g>
</g>
<g>
</g>
<g>
</g>
<g>
</g>
<g>
</g>
<g>
</g>
<g>
</g>
</svg>